<?xml version="1.0" encoding="UTF-8"?> <svg xmlns="http://www.w3.org/2000/svg" width="158" height="58" viewBox="0 0 158 58" fill="none"> <path fill-rule="evenodd" clip-rule="evenodd" d="M47.1101 11.583L51.626 21.2657H51.7305L56.612 11.583H61.2565V26.0949H57.3994V16.9667L53.1728 26.099H50.0752L45.9289 16.9667V26.099H42.1884V11.583H47.1101ZM69.6534 20.6108H74.772L72.5663 15.0342H71.9636L69.6534 20.6228V20.6108ZM75.1135 11.583L81.2807 26.0949H77.1826L76.2626 23.9696H68.2272L67.3352 26.0949H63.197L69.5088 11.583H75.1135ZM87.0822 11.583V22.6317H96.6604V26.0949H83.2212V11.583H87.0822ZM102.434 11.583V26.0949H98.5769V11.583H102.434ZM108.416 11.583L116.182 20.3496V11.583H120.039V26.0949H116.488L108.701 17.3283V26.0949H104.897V11.583H108.416ZM126.339 11.583V16.7016H129.75L133.242 11.583H137.701L133.029 18.3046L138.015 26.099H133.422L129.851 20.2572H126.335V26.111H122.478V11.583H126.339ZM145.757 20.6108H150.875L148.658 15.0342H148.055L145.745 20.6228L145.757 20.6108ZM151.217 11.583L157.384 26.0949H153.286L152.366 23.9696H144.33L143.435 26.099H139.3L145.6 11.587L151.217 11.583ZM54.7196 36.0066C54.241 35.2812 53.6104 34.6684 52.8715 34.2107C52.0377 33.7659 51.0996 33.5535 50.1555 33.596C49.5883 33.5688 49.0212 33.6546 48.4874 33.8484C47.9536 34.0422 47.4636 34.3402 47.0458 34.725C46.6484 35.1273 46.3391 35.608 46.1378 36.1365C45.9365 36.665 45.8476 37.2297 45.8767 37.7945C45.8682 38.3826 45.9746 38.9668 46.1901 39.5141C46.388 40.0124 46.6877 40.4639 47.0699 40.8399C47.4566 41.2136 47.9162 41.5035 48.4199 41.6917C48.9738 41.8974 49.5607 41.9995 50.1515 41.993C51.0937 42.0304 52.0295 41.8227 52.8675 41.3903C53.6119 40.9534 54.2381 40.341 54.6915 39.6065L57.6847 41.2859C57.0237 42.5924 55.9868 43.6712 54.7076 44.3835C53.318 45.0989 51.7701 45.4514 50.2078 45.408C49.101 45.4184 48.0005 45.2404 46.9534 44.8817C45.9959 44.5569 45.1134 44.0432 44.358 43.3711C43.6179 42.7007 43.0314 41.8784 42.6384 40.9604C42.2117 39.9575 41.9996 38.8763 42.0157 37.7865C41.9978 36.6991 42.2143 35.6207 42.6505 34.6245C43.0558 33.7143 43.6502 32.9008 44.3941 32.238C45.1594 31.5634 46.0474 31.0423 47.0097 30.7032C48.0413 30.3372 49.1292 30.155 50.2238 30.1649C53.7219 30.1649 56.2236 31.5376 57.7289 34.283L54.7357 35.9905L54.7196 36.0066ZM65.0612 39.5422H70.1798L67.974 33.9536H67.3714L65.0612 39.5422ZM70.5213 30.5144L76.6884 45.0264H72.5904L71.6703 42.901H63.6349L62.743 45.0264H58.6048L64.9045 30.5144H70.5213ZM87.1947 30.5144C88.0159 30.5023 88.8325 30.6384 89.6054 30.9162C90.3158 31.1772 90.9663 31.579 91.5178 32.0974C92.0539 32.6151 92.4802 33.2354 92.7713 33.9214C93.0842 34.665 93.2401 35.4651 93.2293 36.2718C93.2406 37.0732 93.0846 37.8683 92.7713 38.6061C92.4836 39.2823 92.0565 39.8901 91.5178 40.3899C90.9641 40.8929 90.3132 41.2771 89.6054 41.5189C88.8304 41.7886 88.0152 41.9245 87.1947 41.9207H82.486V45.0183H78.629V30.5224L87.1947 30.5144ZM82.486 38.4212H87.0501C87.654 38.4461 88.2478 38.26 88.7295 37.8949C88.9566 37.6969 89.1342 37.4483 89.2479 37.1692C89.3616 36.8901 89.4084 36.5883 89.3844 36.2879C89.4 35.9817 89.3496 35.6759 89.2366 35.391C89.1236 35.106 88.9507 34.8488 88.7295 34.6366C88.2689 34.2257 87.6668 34.0097 87.0501 34.0339H82.486V38.4172V38.4212ZM99.1514 30.5224V45.0344H95.2944V30.5224H99.1514ZM116.315 30.5224V33.9857H110.69V45.0344H106.833V33.9857H101.208V30.5224H116.315ZM121.94 39.5502H127.058L124.853 33.9616H124.25L121.928 39.5422L121.94 39.5502ZM127.4 30.5224H121.775L115.471 45.0344H119.618L120.51 42.909H128.545L129.465 45.0344H133.551L127.384 30.5224H127.4ZM139.369 30.5224V41.551H148.947V45.0143H135.496V30.5224H139.369Z" fill="#231F20"></path> <path fill-rule="evenodd" clip-rule="evenodd" d="M28.6653 43.1577C28.4564 43.1577 28.2408 43.1577 28.0185 43.1577C27.306 43.1236 26.5939 43.2314 25.9235 43.4749C25.2531 43.7184 24.6378 44.0926 24.1132 44.5759C23.1356 45.5214 22.6468 46.8071 22.6468 48.4329C22.6393 49.1713 22.7758 49.9042 23.0485 50.5904C23.2976 51.2154 23.6738 51.7819 24.1534 52.2537C24.6387 52.7242 25.2159 53.0894 25.8489 53.3265C26.5453 53.5855 27.2835 53.7136 28.0265 53.7041C28.2488 53.7041 28.4644 53.7041 28.6733 53.7041V57.9991H28.0908C26.7013 58.0123 25.3196 57.7895 24.0048 57.3401C22.8028 56.9322 21.6948 56.2874 20.7464 55.4438C19.8187 54.6048 19.0828 53.5757 18.5889 52.4265C18.0532 51.1657 17.7877 49.8066 17.8095 48.4369V48.3767C16.8927 48.5326 15.9628 48.5972 15.0332 48.5695C13.6436 48.55 12.2674 48.2945 10.9633 47.8142C9.77078 47.3782 8.67784 46.7074 7.74914 45.8415C6.8406 44.9816 6.12802 43.936 5.65993 42.776C5.15208 41.4996 4.91802 40.1308 4.97291 38.7583C4.98157 37.392 5.28441 36.0436 5.86082 34.8049C6.39729 33.6727 7.16832 32.6674 8.12279 31.8559C8.32367 31.6871 8.52992 31.5264 8.74152 31.3737C7.20531 31.1633 5.73544 30.6126 4.43914 29.7619C3.14283 28.9111 2.05279 27.7817 1.24851 26.4561C0.554952 25.2439 0.149424 23.8885 0.0632783 22.4946C-0.0940759 21.1116 0.0428432 19.7109 0.465048 18.3845C0.852638 17.1762 1.49059 16.0632 2.3373 15.1181C3.19717 14.1707 4.23105 13.3974 5.38272 12.8401C6.61186 12.2404 7.93865 11.8662 9.29998 11.7352C12.8811 11.3602 15.7444 12.2468 17.8898 14.3949L18.0345 14.5356C17.6271 15.127 17.2837 15.76 17.0099 16.4239C16.5965 17.3765 16.3414 18.3902 16.2546 19.4251C15.6063 18.1072 14.4991 17.0713 13.1409 16.5123C11.9762 16.0532 10.7165 15.8876 9.47274 16.0301C7.30318 16.2551 6.15814 17.3158 5.41888 18.9631C4.73185 20.5018 4.63945 22.6192 5.41888 24.1379C5.72902 24.7436 6.16131 25.2785 6.68848 25.7088C7.93542 26.6635 9.48392 27.1383 11.0517 27.0467C12.2279 27.046 13.3844 26.7443 14.4111 26.1705C15.4378 25.5967 16.3007 24.7697 16.9175 23.7682C17.4338 23.0328 17.7382 22.1698 17.7974 21.2732C17.8121 19.9502 18.0851 18.6427 18.601 17.4243C19.1048 16.2376 19.8521 15.17 20.7946 14.2905C21.7396 13.4151 22.8464 12.7327 24.053 12.2816C25.3383 11.8042 26.6996 11.5647 28.0707 11.5745H28.6532V16.0623C28.4443 16.0489 28.2287 16.0422 28.0064 16.0422C27.29 16.0101 26.5746 16.1251 25.9044 16.3801C25.2341 16.635 24.6232 17.0246 24.1092 17.5247C23.1316 18.5104 22.6428 19.8496 22.6428 21.5424C22.635 22.3122 22.7713 23.0767 23.0445 23.7964C23.2904 24.4455 23.6664 25.0375 24.1494 25.536C24.6309 26.0249 25.21 26.4068 25.8489 26.657C26.5423 26.9293 27.2816 27.0658 28.0265 27.0587C28.2488 27.0587 28.4644 27.052 28.6733 27.0386V31.5264H28.0908C26.6989 31.5402 25.3156 31.3076 24.0048 30.8394C22.7949 30.4082 21.6861 29.7342 20.7464 28.8587C20.2633 28.4054 19.8333 27.8986 19.4648 27.348C18.8068 28.1957 18.0158 28.9311 17.1224 29.5256C19.6255 29.843 21.8513 30.7711 23.4021 32.4384C24.6265 33.7959 25.3853 35.509 25.5677 37.328C24.0515 37.4848 22.5868 37.9658 21.2727 38.7382C21.0156 36.7293 20.437 35.6526 18.6974 34.5598C17.6643 33.9756 16.493 33.68 15.3064 33.704C14.595 33.6532 13.8806 33.7442 13.2047 33.9718C12.5288 34.1994 11.9049 34.5591 11.3691 35.0298C10.37 35.9512 9.8504 37.2249 9.81023 38.8507C9.78314 39.5895 9.9005 40.3264 10.1557 41.0202C10.3896 41.6518 10.7521 42.2278 11.2204 42.7117C11.6949 43.1939 12.264 43.5727 12.8918 43.8246C13.581 44.1 14.3152 44.2458 15.0573 44.2545C16.2407 44.3241 17.4217 44.0846 18.4844 43.5594C18.9097 43.3176 19.2969 43.0144 19.6335 42.6595C19.975 42.2091 20.3599 41.7933 20.7826 41.418L20.8107 41.3939V41.3738C21.7558 40.5555 22.846 39.9218 24.0249 39.5056C25.3146 39.0484 26.6742 38.82 28.0426 38.8306H28.6251L28.6653 43.1577Z" fill="#D11E29"></path> <path fill-rule="evenodd" clip-rule="evenodd" d="M13.4661 0L18.3516 6.47252H18.436L23.3055 0H28.649V9.69874H24.6032L24.5751 5.11052L20.9591 9.69874H15.8165L12.2005 5.11052L12.1724 9.69874H8.12256V0H13.4661Z" fill="#231F20"></path> </svg> 